<?xml version="1.0" encoding="utf-8"?>
<svg viewBox="190.217 172.808 36 36" width="36" height="36" xmlns="http://www.w3.org/2000/svg">
  <rect x="5" y="7" width="2" height="2" class="clr-i-outline clr-i-outline-path-1" transform="matrix(1, 0, 0, 1, 190.21727, 172.8078)" style="fill: rgb(0, 123, 255);"/>
  <rect x="9" y="7" width="2" height="2" class="clr-i-outline clr-i-outline-path-2" transform="matrix(1, 0, 0, 1, 190.21727, 172.8078)" style="fill: rgb(0, 123, 255);"/>
  <rect x="13" y="7" width="2" height="2" class="clr-i-outline clr-i-outline-path-3" transform="matrix(1, 0, 0, 1, 190.21727, 172.8078)" style="fill: rgb(0, 123, 255);"/>
  <path d="M32,4H4A2,2,0,0,0,2,6V30a2,2,0,0,0,2,2H32a2,2,0,0,0,2-2V6A2,2,0,0,0,32,4ZM4,6H32v4.2H4ZM4,30V11.8H32V30Z" class="clr-i-outline clr-i-outline-path-4" transform="matrix(1, 0, 0, 1, 190.21727, 172.8078)" style="fill: rgb(0, 123, 255);"/>
  <rect x="0" y="0" width="36" height="36" fill-opacity="0" transform="matrix(1, 0, 0, 1, 190.21727, 172.8078)" style="fill: rgb(0, 123, 255);"/>
</svg>