<?xml version="1.0" encoding="utf-8"?>
<svg viewBox="204.537 170.565 60.9 51.9" width="60.9" height="51.9" xmlns="http://www.w3.org/2000/svg">
  <g transform="matrix(0.124609, 0, 0, 0.101367, 204.537323, 170.56488)">
    <g>
      <path d="M430.103,99.782c0.291-2.257,0.442-4.48,0.442-6.691c0-32.081-26.1-58.182-58.182-58.182 c-12.928,0-25.251,4.317-35.316,12.125C310.679,17.373,272.582,0,232.727,0c-59.671,0-112.884,38.47-132.038,94.476 c-44.009,7.529-77.417,46.359-77.417,91.706c0,51.328,41.763,93.091,93.079,93.091h46.545c6.423,0,11.636-5.213,11.636-11.636 S169.321,256,162.897,256h-46.545c-38.505,0-69.818-31.313-69.818-69.818c0-36.015,28.113-66.548,64-69.516 c4.852-0.396,8.937-3.77,10.24-8.46c14.022-50.013,60.067-84.934,111.953-84.934c36.911,0,72.017,17.908,93.917,47.895 c2.141,2.932,5.539,4.701,9.169,4.771c3.2-0.186,7.086-1.559,9.344-4.399c6.737-8.495,16.652-13.359,27.206-13.359 c19.247,0,34.909,15.663,34.909,34.909c0,3.305-0.628,6.831-1.932,10.787c-1.001,3.049-0.698,6.365,0.838,9.181 s4.154,4.876,7.261,5.69c30.627,8.064,52.015,35.793,52.015,67.433c0,38.505-31.314,69.818-69.818,69.818h-46.545 c-6.423,0-11.636,5.213-11.636,11.636s5.213,11.636,11.636,11.636h46.545c51.328,0,93.091-41.763,93.091-93.091 C488.727,147.793,465.117,113.711,430.103,99.782z" style="fill: rgb(0, 123, 255);"/>
    </g>
  </g>
  <g transform="matrix(0.124609, 0, 0, 0.101367, 204.537323, 170.56488)">
    <g>
      <path d="M209.443,197.818c-6.423,0-11.636,5.213-11.636,11.636v151.273c0,6.412-5.225,11.636-11.636,11.636h-25.414 c-4.817-13.51-17.617-23.273-32.768-23.273c-19.247,0-34.909,15.663-34.909,34.909s15.663,34.909,34.909,34.909 c15.151,0,27.951-9.763,32.768-23.273h25.425c19.247,0,34.909-15.663,34.909-34.909V209.455 C221.079,203.031,215.866,197.818,209.443,197.818z M128,395.636c-6.412,0-11.636-5.225-11.636-11.636s5.225-11.636,11.636-11.636 s11.636,5.225,11.636,11.636S134.412,395.636,128,395.636z" style="fill: rgb(0, 123, 255);"/>
    </g>
  </g>
  <g transform="matrix(0.124609, 0, 0, 0.101367, 204.537323, 170.56488)">
    <g>
      <path d="M267.636,444.323V186.182c0-6.423-5.213-11.636-11.636-11.636s-11.636,5.213-11.636,11.636v258.141 c-13.51,4.818-23.273,17.617-23.273,32.768C221.091,496.337,236.753,512,256,512s34.909-15.663,34.909-34.909 C290.909,461.94,281.158,449.14,267.636,444.323z M256,488.727c-6.412,0-11.636-5.225-11.636-11.636s5.225-11.636,11.636-11.636 s11.636,5.225,11.636,11.636S262.412,488.727,256,488.727z" style="fill: rgb(0, 123, 255);"/>
    </g>
  </g>
  <g transform="matrix(0.124609, 0, 0, 0.101367, 204.537323, 170.56488)">
    <g>
      <path d="M384,349.091c-15.151,0-27.951,9.763-32.768,23.273h-25.414c-6.412,0-11.636-5.225-11.636-11.636V209.455 c0-6.423-5.213-11.636-11.636-11.636s-11.636,5.213-11.636,11.636v151.273c0,19.247,15.663,34.909,34.909,34.909h25.414 c4.817,13.51,17.617,23.273,32.768,23.273c19.247,0,34.909-15.663,34.909-34.909S403.247,349.091,384,349.091z M384,395.636 c-6.412,0-11.636-5.225-11.636-11.636s5.225-11.636,11.636-11.636s11.636,5.225,11.636,11.636S390.412,395.636,384,395.636z" style="fill: rgb(0, 123, 255);"/>
    </g>
  </g>
  <g transform="matrix(0.124609, 0, 0, 0.101367, 204.537323, 170.56488)"/>
  <g transform="matrix(0.124609, 0, 0, 0.101367, 204.537323, 170.56488)"/>
  <g transform="matrix(0.124609, 0, 0, 0.101367, 204.537323, 170.56488)"/>
  <g transform="matrix(0.124609, 0, 0, 0.101367, 204.537323, 170.56488)"/>
  <g transform="matrix(0.124609, 0, 0, 0.101367, 204.537323, 170.56488)"/>
  <g transform="matrix(0.124609, 0, 0, 0.101367, 204.537323, 170.56488)"/>
  <g transform="matrix(0.124609, 0, 0, 0.101367, 204.537323, 170.56488)"/>
  <g transform="matrix(0.124609, 0, 0, 0.101367, 204.537323, 170.56488)"/>
  <g transform="matrix(0.124609, 0, 0, 0.101367, 204.537323, 170.56488)"/>
  <g transform="matrix(0.124609, 0, 0, 0.101367, 204.537323, 170.56488)"/>
  <g transform="matrix(0.124609, 0, 0, 0.101367, 204.537323, 170.56488)"/>
  <g transform="matrix(0.124609, 0, 0, 0.101367, 204.537323, 170.56488)"/>
  <g transform="matrix(0.124609, 0, 0, 0.101367, 204.537323, 170.56488)"/>
  <g transform="matrix(0.124609, 0, 0, 0.101367, 204.537323, 170.56488)"/>
  <g transform="matrix(0.124609, 0, 0, 0.101367, 204.537323, 170.56488)"/>
</svg>