<?xml version="1.0" encoding="utf-8"?>
<svg viewBox="185.591 160.521 60.9 51.9" width="60.9" height="51.9" xmlns="http://www.w3.org/2000/svg">
  <g transform="matrix(0.647872, 0, 0, 0.552128, 185.59053, 160.520889)">
    <path d="M89,0H5C2.239,0,0,2.238,0,5v84c0,2.762,2.239,5,5,5h84c2.762,0,5-2.238,5-5V5C94,2.238,91.762,0,89,0z M19.165,28.965 c-5.542,0-10.036-4.492-10.036-10.035S13.623,8.895,19.165,8.895c5.543,0,10.037,4.492,10.037,10.035S24.708,28.965,19.165,28.965z M47.234,57.037C41.693,57.037,37.2,52.543,37.2,47s4.493-10.037,10.034-10.037c5.543,0,10.037,4.494,10.037,10.037 S52.777,57.037,47.234,57.037z M47.234,28.965c-5.542,0-10.034-4.492-10.034-10.035S41.693,8.895,47.234,8.895 c5.543,0,10.037,4.492,10.037,10.035S52.777,28.965,47.234,28.965z M74.834,85.105c-5.542,0-10.036-4.494-10.036-10.037 c0-5.541,4.494-10.035,10.036-10.035c5.543,0,10.037,4.494,10.037,10.035C84.872,80.611,80.377,85.105,74.834,85.105z M74.834,57.037c-5.542,0-10.036-4.494-10.036-10.037s4.494-10.037,10.036-10.037c5.543,0,10.037,4.494,10.037,10.037 S80.377,57.037,74.834,57.037z M74.834,28.965c-5.542,0-10.036-4.492-10.036-10.035S69.292,8.895,74.834,8.895 c5.543,0,10.037,4.492,10.037,10.035S80.377,28.965,74.834,28.965z" style="fill: rgb(0, 123, 255);"/>
  </g>
</svg>